<svg clip-rule="evenodd" fill-rule="evenodd" stroke-linejoin="round" stroke-miterlimit="2" viewBox="0 0 20 20" xmlns="http://www.w3.org/2000/svg"><path d="m7.568 2.517c-.401-.055-.807-.055-1.207 0-.099.554-.199 1.109-.298 1.664-.244.079-.477.192-.692.333-.496-.268-.991-.536-1.487-.804-.292.279-.545.596-.752.943.371.424.743.847 1.115 1.27-.09.241-.148.494-.171.75-.519.22-1.038.44-1.556.661.036.402.126.798.268 1.176.563-.026 1.126-.053 1.689-.08.132.221.293.423.479.601-.151.543-.302 1.086-.453 1.628.337.223.702.399 1.087.524.33-.456.66-.913.99-1.37.255.034.514.034.769 0 .33.457.66.914.99 1.37.385-.125.75-.301 1.087-.524-.151-.542-.302-1.085-.453-1.628.186-.178.347-.38.479-.601.563.027 1.126.054 1.688.08.143-.378.233-.774.269-1.176-.519-.221-1.037-.441-1.556-.661-.023-.256-.081-.509-.171-.75.372-.423.744-.846 1.115-1.27-.207-.347-.46-.664-.752-.943-.496.268-.991.536-1.487.804-.215-.141-.448-.254-.692-.333-.099-.555-.199-1.11-.298-1.664zm-.604 3.08c.74 0 1.341.601 1.341 1.341s-.601 1.34-1.341 1.34c-.739 0-1.34-.6-1.34-1.34s.601-1.341 1.34-1.341z" fill="#cdcdcd" transform="matrix(2.24114 0 0 2.24114 -5.60829 -5.30569)"/></svg>